<!--?xml version="1.0" encoding="utf-8"?-->
<!-- Generator: Adobe Illustrator 18.1.1, SVG Export Plug-In . SVG Version: 6.00 Build 0)  -->

<svg version="1.1" id="_x32_" xmlns="http://www.w3.org/2000/svg" xmlns:xlink="http://www.w3.org/1999/xlink" x="0px" y="0px" viewBox="0 67 512 379" style="width: 64px; height: 64px; opacity: 1;" xml:space="preserve">
<style type="text/css">
	.st0{fill:#4B4B4B;}
</style>
<g>
	<path class="st0" d="M0,66.369v379.261h512V66.369H0z M161.02,111.327l13.805,7.928l13.805-7.928l-3.27,15.576l11.802,10.693
		l-15.825,1.697l-6.513,14.526l-6.506-14.526l-15.833-1.697l11.802-10.693L161.02,111.327z M107.198,248.783l-35.556,20.418
		l8.425-40.132l-30.4-27.504l40.762-4.378l16.768-37.409l16.768,37.409l40.745,4.378l-30.382,27.504l8.417,40.132L107.198,248.783z
		 M188.63,335.504l-13.805-7.921l-13.805,7.921l3.269-15.569l-11.802-10.693l15.833-1.688l6.506-14.542l6.513,14.542l15.833,1.688
		l-11.811,10.693L188.63,335.504z M223.134,267.943l-6.514,14.517l-6.506-14.526l-15.824-1.705l11.794-10.676l-3.269-15.594
		l13.805,7.937l13.814-7.937l-3.277,15.594l11.81,10.676L223.134,267.943z M227.157,191.294l3.277,15.576l-13.814-7.937
		l-13.805,7.937l3.269-15.576l-11.794-10.685l15.824-1.714l6.506-14.524l6.514,14.533l15.832,1.705L227.157,191.294z" style="fill: rgb(75, 75, 75);"></path>
</g>
</svg>
