<!--?xml version="1.0" encoding="utf-8"?-->
<!-- Generator: Adobe Illustrator 18.1.1, SVG Export Plug-In . SVG Version: 6.00 Build 0)  -->

<svg version="1.1" id="_x32_" xmlns="http://www.w3.org/2000/svg" xmlns:xlink="http://www.w3.org/1999/xlink" x="0px" y="0px" viewBox="0 60 512 390" style="width: 256px; height: 256px; opacity: 1;" xml:space="preserve">
<style type="text/css">
	.st0{fill:#4B4B4B;}
</style>
<g>
	<polygon class="st0" points="0.67,107.862 0.67,190.746 108.393,190.746 	"></polygon>
	<polygon class="st0" points="168.038,190.746 0.67,61.978 0.67,94.189 126.174,190.746 	"></polygon>
	<polygon class="st0" points="205.293,61.87 60.923,61.87 205.293,172.946 	"></polygon>
	<polygon class="st0" points="0.67,322.27 0.67,403.63 106.418,322.27 	"></polygon>
	<polygon class="st0" points="205.293,450.13 205.293,338.553 60.261,450.13 	"></polygon>
	<polygon class="st0" points="164.663,322.27 0.67,449.606 0,450.13 0.67,450.13 36.191,450.13 201.051,322.27 	"></polygon>
	<polygon class="st0" points="288.812,61.87 256,61.87 223.188,61.87 223.188,217.299 0.67,217.299 0.67,298.243 223.188,298.243
		223.188,450.13 256,450.13 288.812,450.13 288.812,294.702 511.33,294.702 511.33,213.765 288.812,213.765 	"></polygon>
	<polygon class="st0" points="511.33,404.13 511.33,321.254 403.607,321.254 	"></polygon>
	<polygon class="st0" points="343.962,321.254 511.33,450.022 511.33,417.811 385.826,321.254 	"></polygon>
	<polygon class="st0" points="306.707,450.13 451.077,450.13 306.707,339.061 	"></polygon>
	<polygon class="st0" points="511.33,189.73 511.33,108.378 405.578,189.73 	"></polygon>
	<polygon class="st0" points="306.707,61.87 306.707,173.447 451.738,61.87 	"></polygon>
	<polygon class="st0" points="511.33,61.87 475.809,61.87 310.949,189.73 347.337,189.73 511.33,62.394 512,61.87 	"></polygon>
</g>
</svg>
